<svg xmlns="http://www.w3.org/2000/svg" viewBox="0 0 240 340" role="img" aria-labelledby="title desc">
  <title id="title">What Remains of Edith Finch</title>
  <desc id="desc">A quiet game mark with a tall dark house silhouette and title text.</desc>
  <rect width="240" height="340" fill="#eee3d3"/>
  <path d="M0 261c28-16 57-22 86-17 21 4 40 14 61 19 30 8 62 3 93-12v89H0z" fill="#111"/>
  <path d="M34 255V94l26-22 21 19v164z" fill="#111"/>
  <path d="M58 77V43h10v26z" fill="#111"/>
  <path d="M46 67V17h12v39z" fill="#111"/>
  <path d="M30 106h61L61 71z" fill="#111"/>
  <path d="M82 247V137l28-28 24 25v113z" fill="#111"/>
  <path d="M82 137h58l-31-35z" fill="#111"/>
  <path d="M118 117V62h14v68z" fill="#111"/>
  <path d="M124 64l23 18-23 17z" fill="#111"/>
  <path d="M64 181h15v25H64zM101 168h15v26h-15zM39 144h13v22H39z" fill="#eee3d3" opacity=".38"/>
  <path d="M21 253c16-34 35-57 65-73 25-13 41-36 40-63" fill="none" stroke="#111" stroke-width="9" stroke-linecap="round"/>
  <path d="M125 121c20 12 29 29 24 50m-28-58c-16 13-27 30-31 52" fill="none" stroke="#111" stroke-width="7" stroke-linecap="round"/>
  <path d="M145 234c17-19 39-31 68-33" fill="none" stroke="#111" stroke-width="8" stroke-linecap="round"/>
  <g fill="#111">
    <ellipse cx="184" cy="205" rx="13" ry="5" transform="rotate(-23 184 205)"/>
    <ellipse cx="199" cy="199" rx="12" ry="5" transform="rotate(24 199 199)"/>
    <ellipse cx="88" cy="166" rx="11" ry="4" transform="rotate(-32 88 166)"/>
    <ellipse cx="151" cy="174" rx="11" ry="4" transform="rotate(31 151 174)"/>
  </g>
  <text x="79" y="80" fill="#222" font-family="Georgia, 'Times New Roman', serif" font-size="14">What Remains of</text>
  <text x="75" y="119" fill="#111" font-family="Georgia, 'Times New Roman', serif" font-size="34" font-weight="700">Edith</text>
  <text x="77" y="155" fill="#111" font-family="Georgia, 'Times New Roman', serif" font-size="34" font-weight="700">Finch</text>
</svg>
